<?xml version="1.0" ?><!DOCTYPE svg  PUBLIC '-//W3C//DTD SVG 1.1//EN'  'http://www.w3.org/Graphics/SVG/1.1/DTD/svg11.dtd'><svg enable-background="new 0 0 30.59 24.352" height="24.352px" id="Capa_1" version="1.1" viewBox="0 0 30.59 24.352" width="30.59px" xml:space="preserve" xmlns="http://www.w3.org/2000/svg" xmlns:xlink="http://www.w3.org/1999/xlink"><path d="M29.421,1.952l-0.78-0.779C27.887,0.417,26.878,0,25.805,0c-1.074,0-2.082,0.417-2.838,1.174L11.031,13.109L7.623,9.703  C6.869,8.946,5.86,8.529,4.787,8.529c-1.075,0-2.083,0.418-2.839,1.176l-0.774,0.774c-1.564,1.565-1.564,4.11-0.002,5.674  l7.018,7.023c0.757,0.758,1.765,1.174,2.838,1.174c1.074,0,2.082-0.417,2.838-1.175L29.419,7.624  C30.98,6.059,30.98,3.515,29.421,1.952z M28.139,6.342L12.583,21.896c-0.428,0.428-0.991,0.642-1.556,0.642  c-0.563,0-1.128-0.214-1.556-0.642l-7.018-7.023c-0.854-0.854-0.854-2.255,0-3.11l0.777-0.777c0.427-0.428,0.992-0.644,1.556-0.644  s1.127,0.216,1.555,0.644l4.689,4.688L24.249,2.454c0.428-0.427,0.991-0.642,1.556-0.642c0.563,0,1.127,0.215,1.555,0.643  l0.779,0.777C28.992,4.086,28.992,5.487,28.139,6.342z"/></svg>